<?xml version="1.0" standalone="no"?>
<!DOCTYPE svg PUBLIC "-//W3C//DTD SVG 20010904//EN"
 "http://www.w3.org/TR/2001/REC-SVG-20010904/DTD/svg10.dtd">
<svg version="1.0" xmlns="http://www.w3.org/2000/svg"
 width="300.000000pt" height="359.000000pt" viewBox="0 0 300.000000 359.000000"
 preserveAspectRatio="xMidYMid meet">
<metadata>
Created by potrace 1.10, written by Peter Selinger 2001-2011
</metadata>
<g transform="translate(0.000000,359.000000) scale(0.100000,-0.100000)"
fill="#000000" stroke="none">
<path d="M1255 3411 c-35 -16 -65 -51 -133 -155 -108 -168 -142 -225 -212
-358 l-66 -127 -100 -67 c-195 -131 -477 -346 -567 -433 -59 -56 -77 -88 -77
-139 0 -73 31 -94 189 -125 l64 -13 43 -214 c73 -369 202 -1033 209 -1075 16
-97 103 -199 198 -232 41 -14 83 -18 195 -18 l142 0 -6 -45 c-3 -25 -7 -50 -9
-56 -2 -6 -36 -14 -77 -17 -73 -6 -132 -21 -155 -40 -23 -17 -15 -55 15 -71
54 -28 166 -56 246 -62 76 -6 84 -5 109 17 24 21 30 39 48 139 11 63 21 119
22 123 1 5 110 9 241 8 l237 0 39 -60 c21 -32 55 -77 75 -100 l36 -40 -21 -29
c-12 -16 -24 -47 -27 -68 -7 -54 11 -68 81 -62 111 9 326 147 326 209 0 45
-28 59 -116 59 -80 0 -80 0 -132 44 -28 24 -49 46 -46 49 3 2 42 2 88 0 197
-13 322 42 385 169 26 53 40 117 92 403 34 187 76 418 93 514 l32 174 96 -2
c89 -2 98 0 124 23 25 21 29 31 28 78 -1 67 -31 127 -172 338 l-103 155 10 95
c6 52 16 204 23 337 l12 242 -30 37 c-34 43 -162 116 -323 186 -231 99 -404
142 -736 183 -247 30 -364 38 -390 26z m170 -41 c39 -5 109 -11 156 -15 47 -3
101 -10 118 -15 18 -5 39 -6 47 -3 8 3 14 1 14 -4 0 -5 10 -9 23 -9 44 -1 162
-16 172 -22 5 -3 17 -6 25 -7 18 0 147 -34 175 -45 11 -5 31 -12 44 -16 13 -3
40 -13 60 -22 20 -9 42 -17 50 -18 7 -1 18 -7 24 -13 6 -6 17 -11 24 -11 7 0
42 -13 76 -30 35 -16 70 -30 77 -30 7 0 10 -3 7 -7 -6 -5 37 -33 98 -62 11 -5
35 -25 54 -44 l34 -36 -7 -78 c-4 -43 -9 -93 -13 -112 -5 -27 -3 -32 8 -26 11
7 12 6 2 -6 -8 -9 -15 -63 -19 -131 -3 -64 -7 -124 -8 -134 -3 -18 -26 -33
-26 -16 0 10 -55 26 -79 23 -7 -1 -10 2 -6 8 3 6 0 11 -7 11 -7 0 3 14 22 30
21 18 42 27 53 24 9 -3 17 0 17 6 0 6 -6 8 -12 5 -7 -4 -5 0 6 9 20 17 34 116
16 116 -5 0 -10 -19 -10 -42 0 -40 -4 -46 -53 -86 l-52 -42 -27 32 c-15 18
-51 72 -80 120 -29 48 -55 87 -58 88 -3 0 -61 -36 -130 -79 -93 -58 -128 -76
-136 -67 -8 8 -105 189 -130 244 -1 2 -58 -29 -126 -67 -68 -39 -131 -71 -139
-71 -14 0 -66 108 -109 223 -5 16 -13 27 -18 25 -4 -2 -47 -23 -97 -46 -49
-23 -107 -50 -129 -62 -21 -11 -42 -17 -47 -14 -5 2 -25 58 -45 123 l-36 118
-32 -17 c-61 -30 -141 -64 -149 -62 -5 2 -6 -2 -2 -8 7 -11 26 -7 75 13 14 6
29 9 34 8 5 -1 13 3 17 10 4 7 14 9 25 4 11 -5 23 -7 28 -6 5 1 6 -5 3 -14 -4
-8 -2 -15 4 -15 7 0 9 -11 5 -27 -5 -21 -4 -24 4 -13 8 12 10 11 10 -8 0 -13
5 -33 11 -44 13 -25 21 -88 10 -88 -4 0 -11 4 -16 8 -6 5 -35 14 -65 22 -30 7
-62 17 -70 21 -31 16 -143 48 -151 43 -5 -3 -9 1 -9 9 0 8 7 18 16 21 8 3 12
10 9 16 -3 5 -1 10 5 10 6 0 8 5 4 12 -5 7 -2 9 8 6 10 -4 14 0 14 16 -1 14 5
21 17 20 11 -1 29 14 45 38 20 31 43 48 100 74 41 19 78 34 83 34 5 0 26 -54
46 -120 21 -66 40 -119 43 -117 85 47 262 128 272 124 11 -4 46 -86 99 -234
l8 -23 43 29 c24 16 83 52 133 80 73 43 91 49 100 38 5 -8 35 -66 65 -130 30
-64 58 -116 61 -116 3 -1 46 25 95 57 49 32 105 68 125 80 l37 22 49 -72 c27
-40 62 -95 77 -121 25 -43 30 -47 44 -35 72 60 91 78 81 78 -7 0 -27 -11 -45
-25 -33 -25 -54 -32 -54 -16 0 4 -12 21 -26 36 -15 17 -23 34 -19 43 3 9 3 13
-1 10 -11 -12 -31 16 -27 37 4 15 2 17 -5 6 -7 -10 -12 -7 -22 16 -7 15 -23
36 -34 45 -20 14 -25 15 -56 0 -19 -8 -39 -14 -43 -13 -5 1 -6 -3 -3 -8 4 -5
-3 -12 -14 -16 -11 -3 -20 -10 -20 -15 0 -5 -7 -7 -15 -4 -8 4 -15 2 -15 -3 0
-5 -13 -19 -30 -31 -25 -19 -29 -20 -23 -5 5 17 5 17 -8 1 -8 -10 -21 -16 -29
-15 -23 4 -41 17 -35 27 3 5 1 12 -5 15 -6 4 -8 16 -5 28 5 17 4 19 -4 7 -8
-11 -11 -12 -11 -2 0 7 -7 20 -15 28 -8 8 -11 22 -8 31 4 9 2 14 -3 10 -6 -3
-16 9 -22 28 -7 18 -20 36 -28 39 -24 9 -95 -5 -87 -17 4 -6 0 -8 -11 -4 -10
4 -15 3 -11 -3 3 -6 -2 -10 -13 -10 -10 0 -28 -9 -39 -19 -12 -11 -23 -17 -27
-14 -3 3 -8 -1 -12 -10 -3 -9 -12 -13 -21 -10 -11 4 -14 2 -9 -5 5 -8 -3 -12
-23 -12 -17 0 -31 5 -31 10 0 6 0 12 0 15 0 3 -9 20 -19 38 -10 17 -16 42 -15
55 3 14 -1 22 -11 22 -9 0 -18 12 -21 30 -4 17 -11 30 -16 30 -5 0 -7 4 -4 8
2 4 -11 8 -30 9 -19 0 -34 -4 -34 -9 0 -6 -12 -7 -27 -4 -21 5 -24 4 -13 -4
13 -9 13 -10 0 -11 -8 -1 -19 -1 -24 0 -4 1 -14 -6 -21 -15 -7 -10 -19 -15
-29 -11 -10 4 -16 1 -16 -7 0 -17 -24 -27 -47 -20 -15 5 -16 4 -3 -5 13 -9 12
-11 -5 -11 -11 0 -26 4 -34 9 -17 11 -49 101 -43 120 3 9 0 11 -8 6 -10 -6
-12 -4 -7 8 4 10 2 17 -4 17 -6 0 -9 9 -6 20 3 13 0 20 -9 20 -8 0 -14 6 -14
13 0 7 -3 8 -8 2 -4 -5 -18 -12 -32 -14 -14 -1 -27 -6 -30 -10 -13 -16 -51
-30 -66 -24 -11 4 -15 2 -11 -4 5 -7 0 -9 -14 -6 -11 3 -17 9 -12 12 5 3 16
22 26 41 9 19 28 48 42 64 14 16 25 32 25 36 0 3 13 21 30 40 16 18 27 36 25
40 -6 10 102 11 180 0z m167 -464 c3 2 8 -4 11 -16 3 -11 1 -18 -4 -14 -5 3
-9 0 -9 -6 0 -6 6 -13 14 -16 8 -3 17 -15 21 -27 4 -12 8 -24 9 -27 1 -3 12
-24 24 -48 13 -23 20 -47 16 -53 -7 -11 -63 -3 -78 12 -6 5 -16 9 -24 9 -8 0
-28 6 -45 14 -18 8 -57 22 -87 31 -30 9 -58 21 -61 27 -4 5 -18 11 -32 11 -20
2 -23 5 -16 18 9 18 39 33 47 24 3 -2 -6 -9 -19 -14 -23 -9 -23 -10 -2 -10 13
-1 24 7 28 19 4 13 15 20 31 20 17 0 23 4 18 12 -4 7 -3 8 5 4 7 -5 28 3 50
18 23 16 45 24 54 20 11 -4 17 -1 17 7 1 10 4 9 14 -3 7 -10 15 -15 18 -12z
m-302 -109 c58 -19 164 -56 235 -81 230 -81 966 -256 1078 -256 24 0 27 -3 27
-35 0 -19 -3 -35 -7 -35 -25 1 -358 65 -468 90 -240 55 -526 130 -613 162 -48
17 -197 69 -332 114 -135 46 -249 85 -254 87 -5 2 -1 15 8 29 l17 26 102 -33
c56 -18 149 -48 207 -68z m-340 33 c11 -11 29 -20 40 -20 11 0 47 -11 80 -25
33 -14 67 -25 77 -25 10 0 30 -6 45 -14 15 -8 42 -17 60 -21 18 -4 38 -11 43
-15 6 -4 31 -13 57 -21 26 -7 45 -16 43 -20 -3 -3 7 -11 20 -17 14 -7 25 -8
25 -3 0 5 22 2 50 -7 27 -8 46 -20 43 -25 -3 -6 -1 -7 5 -3 7 4 45 -4 84 -17
40 -14 99 -30 130 -36 32 -7 60 -17 63 -22 4 -5 24 -9 45 -9 21 0 42 -4 45
-10 3 -5 15 -10 26 -10 11 0 45 -9 76 -20 65 -23 74 -24 53 -9 -12 9 -12 10 3
5 10 -3 23 -6 28 -6 6 0 7 -5 3 -12 -4 -7 -3 -8 5 -4 15 10 113 -13 123 -28 6
-8 8 -8 8 0 0 8 16 7 52 -2 29 -8 65 -14 80 -14 15 0 28 -5 28 -10 0 -6 12
-10 28 -9 15 1 56 -3 92 -10 104 -18 124 -15 137 17 9 22 11 13 10 -58 -2 -84
-2 -84 33 -118 19 -19 28 -30 20 -26 -8 4 -3 -6 13 -23 15 -16 24 -32 20 -36
-3 -4 -1 -7 5 -7 7 0 12 -5 12 -11 0 -5 11 -24 26 -42 14 -18 25 -36 24 -40 0
-4 6 -15 15 -23 30 -30 72 -100 85 -139 7 -22 16 -44 20 -48 13 -15 -2 -58
-28 -75 -18 -11 -43 -15 -93 -14 -51 2 -69 -1 -70 -10 0 -7 -4 -4 -9 7 -7 16
-9 17 -9 3 -1 -9 -10 -20 -21 -23 -11 -3 -20 -15 -20 -25 0 -10 -4 -21 -9 -24
-4 -3 -6 -17 -3 -31 3 -17 0 -25 -9 -25 -11 0 -11 -2 0 -9 11 -7 12 -13 3 -23
-6 -8 -14 -36 -17 -63 -4 -28 -9 -54 -12 -59 -3 -4 -7 -27 -9 -50 -2 -23 -8
-54 -13 -69 -6 -15 -8 -33 -5 -41 3 -7 -4 -41 -16 -75 -11 -34 -20 -68 -19
-74 3 -17 -11 -106 -22 -144 -6 -18 -10 -51 -11 -74 0 -23 -3 -37 -7 -31 -3 5
-7 -13 -8 -41 -1 -28 -7 -55 -13 -61 -5 -5 -10 -29 -10 -53 0 -24 -5 -43 -11
-43 -5 0 -7 -4 -4 -10 7 -11 -21 -75 -45 -103 -35 -43 -47 -53 -80 -69 -60
-29 -111 -38 -222 -38 -65 0 -108 -4 -108 -10 0 -5 -7 -10 -15 -10 -18 0 -18
1 -4 -38 6 -17 17 -33 25 -36 8 -3 14 -13 14 -22 0 -10 3 -15 6 -11 3 3 15 -3
26 -13 21 -20 61 -29 141 -32 39 -1 47 -5 47 -21 0 -19 -54 -77 -72 -77 -5 0
-26 -11 -46 -25 -20 -14 -45 -25 -55 -25 -10 0 -16 -4 -13 -9 8 -13 -78 -36
-121 -32 -19 2 -16 31 7 76 26 51 21 69 -34 130 -25 28 -45 55 -46 61 0 6 -11
24 -25 40 -14 16 -25 33 -25 37 0 5 -4 6 -9 3 -5 -4 -11 -2 -13 4 -2 5 -73 10
-173 10 -326 2 -313 2 -320 -21 -4 -11 -10 -18 -13 -14 -7 6 -30 -67 -38 -120
-6 -40 -12 -64 -30 -106 -15 -33 -18 -35 -57 -33 -77 5 -237 43 -237 57 0 4
-4 6 -8 3 -5 -3 -9 1 -9 9 0 8 4 12 9 9 4 -3 8 -1 8 4 0 11 80 25 140 26 31 1
37 6 55 41 11 22 23 41 26 43 4 2 3 18 -1 37 -4 19 -5 35 -2 35 4 0 -3 7 -14
15 -16 11 -56 15 -160 16 -79 0 -144 5 -152 11 -6 6 -27 14 -45 17 -19 4 -33
14 -35 24 -4 19 30 37 36 19 2 -6 10 -8 18 -5 8 3 21 0 29 -7 12 -10 168 -13
699 -12 376 0 699 3 717 7 49 10 101 36 123 59 10 12 22 20 26 19 4 -1 16 28
25 65 24 95 24 94 35 87 5 -3 10 -1 10 4 0 6 -4 11 -10 11 -13 0 -13 47 -1 55
6 3 10 13 10 23 -1 49 15 132 22 120 5 -7 7 7 5 35 -1 26 1 47 5 47 7 0 24 87
20 103 -4 19 21 87 32 87 8 0 8 3 -2 9 -8 5 -10 14 -5 22 4 8 7 26 5 41 -1 14
3 29 9 33 5 3 8 10 5 15 -4 7 6 75 21 140 8 36 12 62 13 88 1 15 5 21 12 16 8
-5 10 1 5 19 -3 14 -2 28 2 31 8 4 8 14 3 58 -1 4 -20 12 -43 18 -24 6 -51 15
-62 21 -13 8 -16 7 -11 -1 6 -9 1 -10 -16 -4 -13 4 -40 9 -59 9 -67 2 -162 18
-149 25 7 5 -12 6 -42 4 -33 -3 -49 -1 -41 4 9 6 -7 7 -39 4 -32 -3 -50 -1
-46 5 3 5 -9 8 -31 6 -20 -1 -62 4 -93 12 -31 7 -71 12 -88 10 -17 -2 -30 -1
-27 3 5 8 -17 11 -97 12 -27 0 -58 5 -69 11 -16 8 -19 8 -13 -1 5 -8 2 -10
-11 -7 -49 15 -170 31 -269 36 -32 2 -36 4 -20 11 13 6 5 7 -24 3 -25 -3 -42
-2 -38 3 3 5 -20 9 -51 9 -48 1 -123 9 -142 15 -11 4 -37 7 -83 8 -27 1 -46 5
-44 10 3 4 -24 7 -60 7 -36 0 -67 3 -70 8 -2 4 -9 5 -14 1 -5 -3 -28 -3 -51 1
-30 5 -37 10 -27 17 11 8 10 8 -4 4 -50 -16 -70 -19 -63 -7 5 7 -5 11 -31 12
-21 1 -47 3 -58 5 -69 12 -173 13 -182 2 -17 -22 -22 -82 -8 -101 9 -13 11
-28 5 -48 -5 -16 -5 -27 0 -24 14 9 22 -26 35 -150 10 -92 16 -116 27 -109 8
5 9 -2 5 -24 -3 -17 -2 -32 3 -34 5 -2 11 -16 13 -33 3 -16 2 -23 0 -15 -3 8
-9 19 -14 24 -9 10 6 -57 21 -89 18 -41 38 -169 30 -191 -7 -16 -5 -24 7 -28
8 -4 13 -13 9 -21 -3 -8 0 -15 5 -15 6 0 9 -9 6 -20 -3 -11 -1 -20 4 -20 6 0
7 -15 3 -36 -4 -25 -3 -35 4 -31 13 9 22 -29 16 -75 -3 -23 0 -38 6 -38 6 0
10 -6 9 -12 -2 -7 2 -30 9 -51 6 -21 8 -45 5 -54 -3 -8 -1 -18 6 -22 6 -4 15
-31 20 -59 4 -28 13 -58 20 -66 7 -8 9 -21 5 -27 -4 -7 -3 -10 2 -7 5 3 21 -7
35 -22 24 -26 25 -28 9 -48 -17 -21 -17 -21 -51 14 -18 19 -29 34 -23 34 5 0
2 6 -7 13 -17 13 -54 141 -44 156 3 5 1 12 -5 16 -5 3 -10 22 -10 41 0 20 -4
44 -10 54 -5 10 -12 36 -15 57 -3 21 -10 58 -15 83 -6 25 -12 59 -14 75 -3 17
-7 41 -10 55 -25 112 -34 163 -32 189 1 16 -2 28 -6 25 -4 -3 -8 7 -8 21 0 14
-3 24 -7 22 -5 -3 -8 14 -8 36 1 23 -2 47 -4 52 -9 17 -52 242 -50 259 3 27
-2 47 -10 41 -6 -3 -10 3 -10 12 0 10 -2 32 -6 48 -3 17 -6 36 -7 43 -1 6 -4
12 -8 12 -3 0 -5 13 -4 29 1 18 -6 38 -20 53 -11 12 -20 26 -19 29 1 4 -8 7
-20 8 -69 4 -87 7 -87 14 0 4 -10 7 -22 7 -13 0 -38 9 -55 20 -29 17 -33 25
-33 61 0 35 6 46 46 82 25 23 71 66 102 95 31 29 62 50 69 48 8 -3 13 2 13 14
0 11 6 20 13 20 7 0 28 14 47 32 19 18 39 31 43 30 4 -1 10 5 13 13 3 8 10 12
15 9 5 -3 9 0 9 5 0 6 6 11 13 11 7 0 26 14 42 30 16 17 35 28 43 25 7 -2 10
0 7 5 -4 6 7 16 23 23 16 6 31 17 33 22 2 6 10 9 16 9 7 -1 10 2 7 7 -3 5 5
14 18 19 13 5 45 26 72 45 27 20 55 34 62 31 8 -3 11 0 7 10 -3 7 0 14 6 14 6
0 21 20 33 45 12 24 25 42 30 39 4 -3 5 2 2 10 -8 22 2 20 26 -4z m1021 -31
c12 -12 22 -26 23 -33 1 -6 12 -26 24 -43 12 -18 21 -35 20 -40 -2 -5 3 -15 9
-23 59 -71 62 -76 43 -77 -10 -1 -24 5 -31 13 -13 16 -34 19 -24 4 7 -11 -8
-14 -19 -3 -3 4 -14 8 -24 9 -46 6 -238 57 -248 65 -7 5 -16 9 -20 8 -24 -4
-44 2 -38 12 4 7 10 7 16 1 10 -10 54 10 69 32 4 5 12 5 19 1 9 -5 11 -4 6 3
-5 8 0 12 12 12 11 0 25 7 32 15 7 8 19 15 26 15 8 0 14 4 14 10 0 5 11 12 25
16 14 3 25 10 25 15 0 15 19 10 41 -12z m409 -90 c0 -5 14 -28 31 -49 19 -23
28 -43 24 -51 -5 -8 -4 -10 3 -5 7 4 12 3 12 -2 0 -4 9 -18 20 -30 11 -12 19
-27 18 -33 -2 -7 7 -15 19 -18 14 -4 20 -10 15 -18 -7 -11 -96 1 -237 31 -116
25 -135 30 -135 37 0 5 -8 6 -17 2 -15 -5 -15 -3 2 14 11 11 23 19 28 16 4 -2
7 1 7 7 0 6 4 9 9 6 4 -3 16 3 26 14 10 11 24 20 32 20 7 0 13 5 13 10 0 6 11
10 25 10 15 0 23 5 20 13 -6 14 29 34 63 36 12 0 22 -4 22 -10z m-1475 -763
c204 -25 422 -52 485 -61 63 -8 284 -35 490 -60 384 -47 732 -93 735 -97 1 -2
-15 -91 -36 -198 -21 -107 -42 -220 -48 -250 -5 -30 -24 -127 -40 -215 -17
-88 -40 -209 -51 -268 -11 -59 -27 -121 -35 -136 -20 -39 -69 -78 -113 -91
-24 -6 -280 -10 -718 -10 -759 0 -755 0 -812 64 -43 49 -35 16 -152 616 -11
58 -47 240 -80 405 -33 165 -60 313 -60 329 0 26 2 28 33 22 17 -3 199 -26
402 -50z"/>
<path d="M1229 3303 c-6 -7 -16 -10 -22 -6 -6 4 -7 1 -2 -7 4 -7 2 -16 -5 -20
-8 -5 -3 -17 19 -39 17 -18 36 -29 41 -26 6 4 24 0 40 -9 17 -8 28 -10 25 -5
-9 13 2 11 70 -12 33 -11 73 -22 88 -24 29 -4 82 -20 127 -37 14 -6 37 -11 51
-13 15 -2 48 -10 75 -18 92 -28 199 -58 214 -61 8 -1 22 -5 30 -8 8 -3 42 -12
75 -21 118 -30 210 -58 221 -68 6 -5 19 -7 28 -3 9 3 16 1 16 -5 0 -6 6 -8 14
-5 8 3 25 0 38 -7 13 -7 32 -14 43 -15 25 -3 95 -19 162 -38 45 -12 54 -12 70
1 16 13 18 21 9 50 -12 36 -12 36 -150 68 -39 9 -85 23 -104 31 -19 8 -40 14
-48 14 -7 0 -25 5 -41 11 -15 7 -35 13 -43 14 -52 6 -90 17 -85 25 3 4 -3 6
-14 3 -10 -3 -22 0 -25 6 -4 5 -13 8 -20 5 -8 -3 -30 2 -51 10 -21 9 -48 16
-61 16 -12 0 -29 6 -36 13 -7 8 -27 14 -44 15 -16 0 -48 7 -69 15 -63 23 -103
33 -225 62 -63 15 -135 34 -160 42 -25 8 -89 25 -143 37 -80 19 -99 20 -108 9z
m303 -78 c156 -41 353 -95 438 -119 248 -72 467 -132 573 -157 l97 -23 0 -34
c0 -28 -3 -32 -18 -28 -10 4 -73 20 -140 36 -67 16 -231 61 -364 99 -308 87
-879 241 -895 241 -7 0 -13 3 -13 8 0 9 29 52 35 52 3 0 132 -34 287 -75z"/>
<path d="M947 2747 c-3 -8 -15 -17 -26 -20 -14 -3 -19 -1 -15 6 4 7 -5 0 -18
-15 -14 -16 -32 -28 -39 -28 -8 -1 -36 -21 -63 -45 -27 -24 -52 -42 -56 -40
-4 2 -23 -11 -43 -30 -19 -18 -38 -30 -42 -27 -3 4 -15 -4 -26 -18 -16 -21
-20 -23 -29 -10 -8 12 -10 11 -10 -6 0 -20 -46 -61 -62 -56 -5 1 -8 -2 -8 -8
0 -5 -7 -10 -16 -10 -8 0 -12 -4 -9 -10 5 -9 -15 -15 -37 -11 -4 0 -4 -7 -1
-16 5 -12 2 -15 -10 -10 -9 3 -17 3 -17 -2 0 -10 -37 -53 -44 -51 -13 2 -66
-35 -66 -46 0 -7 -10 -16 -22 -20 -23 -7 -48 -28 -48 -39 0 -4 -11 -16 -25
-27 -32 -25 -32 -51 0 -68 18 -10 22 -16 13 -22 -8 -4 0 -6 18 -4 17 2 59 -2
93 -10 60 -14 105 -21 181 -28 19 -2 35 -4 35 -6 0 -2 46 -10 65 -10 75 -2
180 -14 171 -20 -9 -5 -7 -9 8 -13 11 -2 22 0 24 6 2 8 23 7 73 -1 38 -7 89
-14 114 -16 25 -3 45 -5 45 -7 0 -3 45 -8 97 -10 26 -1 45 -5 43 -9 -3 -4 17
-8 43 -7 63 0 226 -18 241 -27 4 -3 32 -6 62 -7 30 -1 59 -5 64 -8 6 -3 40 -6
77 -8 37 -1 76 -6 86 -12 11 -6 22 -7 26 -4 3 4 17 0 30 -7 14 -7 38 -10 54
-7 34 7 148 -3 134 -12 -6 -3 18 -7 51 -7 34 -1 76 -5 92 -9 17 -3 59 -8 94
-11 36 -2 81 -9 102 -14 20 -6 45 -7 55 -3 11 4 15 3 11 -4 -4 -7 7 -9 33 -6
26 3 40 1 40 -7 0 -6 4 -9 10 -5 14 9 230 -17 224 -27 -6 -10 55 -1 94 13 47
18 54 108 12 148 -14 13 -19 20 -12 17 22 -12 13 5 -14 26 -14 12 -23 27 -20
35 3 8 2 11 -4 8 -5 -3 -17 9 -26 27 -9 18 -20 35 -23 38 -3 3 -6 12 -6 20 0
8 -7 15 -15 15 -9 0 -14 8 -12 19 2 10 -1 15 -6 12 -9 -5 -26 29 -23 47 1 4
-2 6 -6 5 -5 -2 -9 0 -10 5 -2 6 -35 38 -68 65 -18 15 -49 25 -90 29 -22 2
-57 8 -79 13 -21 5 -45 6 -54 3 -11 -5 -13 -3 -7 7 5 9 4 11 -3 6 -6 -4 -31
-2 -54 5 -24 6 -58 13 -77 15 -18 3 -42 9 -52 15 -10 5 -19 7 -19 4 0 -3 -9
-1 -20 5 -19 10 -65 20 -100 22 -8 0 -20 5 -27 10 -7 5 -17 7 -22 4 -5 -4 -13
-2 -16 4 -4 6 -16 8 -27 4 -14 -4 -18 -2 -14 5 5 7 -4 10 -26 9 -43 -2 -148
21 -148 33 0 5 -12 7 -27 3 -22 -4 -25 -3 -13 5 12 9 10 10 -11 6 -33 -8 -123
30 -113 47 4 7 3 8 -5 4 -6 -4 -9 -12 -5 -17 6 -11 -37 -4 -71 11 -11 5 -49
18 -85 29 -36 11 -64 24 -62 30 1 8 -7 9 -24 5 -19 -5 -25 -4 -20 5 7 10 -8
15 -44 13 -8 0 -27 8 -42 19 -15 11 -32 18 -37 15 -11 -7 -63 19 -55 26 3 4
-1 6 -8 5 -22 -1 -78 15 -78 23 0 3 -6 7 -12 8 -33 3 -74 16 -79 24 -3 5 -9 3
-12 -5z m220 -98 c227 -85 333 -121 478 -159 189 -50 636 -150 790 -175 151
-26 153 -27 270 -205 146 -222 154 -240 115 -275 -16 -15 -31 -17 -82 -12 -65
6 -460 56 -648 82 -58 8 -184 23 -280 35 -96 11 -245 29 -330 40 -85 11 -357
45 -605 75 -462 56 -620 79 -645 95 -28 17 9 58 155 169 314 238 548 401 575
401 10 0 103 -32 207 -71z"/>
<path d="M1532 2148 c-18 -18 -14 -52 9 -82 30 -38 63 -32 67 12 6 59 -42 104
-76 70z"/>
<path d="M1686 2129 c-35 -42 -34 -94 3 -94 31 0 62 42 64 86 3 48 -30 52 -67
8z"/>
<path d="M973 1748 c-80 -38 -83 -267 -6 -328 88 -69 183 33 170 181 -6 69
-29 114 -70 139 -35 22 -61 24 -94 8z m81 -33 c-4 -10 0 -15 15 -15 12 0 18
-5 15 -13 -2 -7 4 -22 15 -34 16 -16 19 -32 16 -76 -2 -31 -6 -61 -10 -67 -3
-5 -3 -15 1 -22 4 -7 3 -8 -4 -4 -7 4 -12 2 -12 -5 0 -18 -43 -54 -69 -57 -14
-2 -21 0 -17 6 3 6 -3 13 -14 17 -34 11 -51 49 -52 117 -2 107 20 144 97 161
11 3 21 5 22 6 1 0 0 -6 -3 -14z"/>
<path d="M2196 1707 c-4 -27 -5 -51 -2 -54 7 -7 19 61 14 84 -2 10 -8 -4 -12
-30z"/>
<path d="M1614 1719 c-58 -16 -93 -82 -93 -179 -1 -195 201 -235 225 -44 18
149 -40 247 -132 223z m37 -29 c14 -8 19 -7 19 2 0 6 6 3 14 -7 8 -11 12 -23
9 -27 -2 -5 3 -11 12 -14 12 -5 14 -15 10 -43 -4 -26 -3 -30 4 -16 6 14 8 2 6
-40 -2 -65 -26 -125 -50 -125 -8 0 -15 -5 -15 -10 0 -6 -12 -8 -27 -4 -22 4
-25 3 -13 -5 17 -12 10 -14 -14 -5 -8 3 -12 12 -9 20 4 12 -6 18 -28 16 -7 -1
-10 21 -10 68 0 19 -5 38 -12 42 -8 5 -8 13 0 30 6 13 11 33 11 44 1 21 48 82
65 83 5 1 17 -4 28 -9z"/>
<path d="M2176 1519 c-4 -28 -5 -53 -3 -56 3 -2 8 19 12 47 4 28 5 53 2 56 -2
3 -7 -19 -11 -47z"/>
<path d="M1499 1214 c-69 -74 -244 -84 -323 -17 -21 18 -38 23 -65 21 -31 -3
-36 -7 -39 -31 -3 -23 5 -37 41 -72 99 -94 276 -110 391 -34 75 50 109 126 67
149 -30 16 -45 12 -72 -16z m45 -20 c3 -9 3 -21 -1 -27 -5 -9 -3 -9 8 -2 8 6
6 2 -4 -7 -11 -10 -16 -18 -12 -18 4 0 2 -7 -5 -15 -7 -8 -16 -13 -20 -10 -4
3 -11 -2 -14 -11 -4 -9 -13 -14 -21 -10 -8 3 -15 1 -15 -4 0 -8 -27 -20 -60
-27 -44 -8 -100 -11 -100 -4 0 5 -11 6 -24 4 -16 -3 -37 3 -57 18 -18 13 -29
17 -25 10 7 -10 4 -11 -13 -2 -11 6 -26 21 -32 33 -7 13 -14 17 -18 10 -4 -7
-11 0 -17 16 -13 35 2 53 34 41 12 -5 22 -11 22 -14 0 -4 -5 -3 -12 1 -7 4 -8
3 -4 -4 4 -7 19 -12 33 -12 15 0 23 -3 20 -7 -4 -4 6 -12 22 -19 32 -13 168
-8 187 7 5 4 20 6 32 2 14 -3 22 -1 22 7 0 15 40 57 56 59 7 1 15 -6 18 -15z"/>
</g>
</svg>
